<svg width="36.000000" height="38.000000" viewBox="0 0 36 38" fill="none" xmlns="http://www.w3.org/2000/svg" xmlns:xlink="http://www.w3.org/1999/xlink">
	<desc>
			Created with Pixso.
	</desc>
	<defs/>
	<rect id="Rectangle 151" rx="10.133333" width="35.888889" height="38.000000" fill="#BDBDBD" fill-opacity="1.000000"/>
	<path id="Path" d="M24.36 20.13L25.13 15.01L20.34 15.01L20.34 11.69C20.34 10.29 21 8.92 23.15 8.92L25.33 8.92L25.33 4.56C25.33 4.56 23.35 4.22 21.46 4.22C17.51 4.22 14.94 6.67 14.94 11.11L14.94 15.01L10.55 15.01L10.55 20.13L14.94 20.13L14.94 32.5C15.82 32.64 16.72 32.72 17.64 32.72C18.55 32.72 19.45 32.64 20.34 32.5L20.34 20.13L24.36 20.13Z" fill="#FFFFFF" fill-opacity="1.000000" fill-rule="nonzero"/>
</svg>
