<svg width="37.000000" height="38.000000" viewBox="0 0 37 38" fill="none" xmlns="http://www.w3.org/2000/svg" xmlns:xlink="http://www.w3.org/1999/xlink">
	<desc>
			Created with Pixso.
	</desc>
	<defs/>
	<rect id="Rectangle 152" x="-0.266602" rx="10.133333" width="36.944443" height="38.000000" fill="#BDBDBD" fill-opacity="1.000000"/>
	<path id="Vector" d="M3.95 17.78C4 16.34 4 14.2 4.11 12.01C4.22 10.3 4.65 8.76 5.71 7.37C6.89 5.82 8.44 4.91 10.31 4.54C11.22 4.38 12.13 4.27 13.04 4.27C15.66 4.22 18.22 4.22 20.84 4.22C22.28 4.22 23.78 4.27 25.22 4.38C27.36 4.59 29.18 5.39 30.57 7.05C31.42 8.06 31.91 9.18 32.17 10.46C32.39 11.43 32.44 12.33 32.44 13.29C32.44 16.61 32.44 19.92 32.44 23.28C32.44 24.67 32.33 26.06 31.85 27.44C30.94 29.95 29.23 31.5 26.67 32.25C25.65 32.52 24.58 32.62 23.57 32.62C19.72 32.73 15.82 32.78 11.97 32.57C10.36 32.52 8.87 32.09 7.48 31.18C5.77 30.01 4.7 28.41 4.32 26.38C4.16 25.47 4.06 24.56 4.06 23.65C3.95 21.94 3.95 20.24 3.95 17.78ZM18.22 30.17C19.93 30.17 21.7 30.11 23.41 30.11C24.26 30.11 25.06 30.06 25.87 29.85C27.52 29.42 28.75 28.46 29.34 26.8C29.71 25.9 29.82 24.93 29.82 23.92C29.82 20.29 29.82 16.71 29.82 13.08C29.82 12.44 29.71 11.75 29.61 11.11C29.18 8.97 27.84 7.63 25.71 7.1C24.64 6.89 23.57 6.83 22.45 6.83C19.88 6.83 17.37 6.83 14.8 6.83C13.52 6.83 12.18 6.83 10.9 7.05C8.81 7.47 7.42 8.65 6.89 10.68C6.62 11.69 6.57 12.71 6.57 13.72C6.52 16.07 6.52 18.47 6.52 20.82C6.52 22 6.52 23.17 6.62 24.35C6.68 25.04 6.78 25.74 6.94 26.43C7.37 28.03 8.44 29.1 10.04 29.63C11.01 29.95 12.02 30.06 13.04 30.06C14.75 30.11 16.51 30.17 18.22 30.17Z" fill="#FFFFFF" fill-opacity="1.000000" fill-rule="nonzero"/>
	<path id="Vector" d="M18.22 25.79C14.16 25.79 10.9 22.48 10.9 18.47C10.9 14.42 14.21 11.16 18.22 11.16C22.28 11.21 25.55 14.47 25.55 18.47C25.55 22.53 22.23 25.79 18.22 25.79ZM18.22 23.23C20.84 23.23 22.98 21.09 22.98 18.47C22.98 15.86 20.84 13.72 18.22 13.72C15.6 13.72 13.52 15.8 13.47 18.47C13.47 21.09 15.6 23.23 18.22 23.23Z" fill="#FFFFFF" fill-opacity="1.000000" fill-rule="nonzero"/>
	<path id="Vector" d="M27.52 10.89C27.52 11.85 26.72 12.6 25.81 12.6C24.9 12.6 24.1 11.8 24.16 10.84C24.16 9.88 24.96 9.13 25.92 9.18C26.83 9.18 27.52 9.93 27.52 10.89Z" fill="#FFFFFF" fill-opacity="1.000000" fill-rule="nonzero"/>
</svg>
