<svg width="228.000000" height="45.000000" viewBox="0 0 228 45" fill="none" xmlns="http://www.w3.org/2000/svg" xmlns:xlink="http://www.w3.org/1999/xlink">
	<desc>
			Created with Pixso.
	</desc>
	<defs>
		<clipPath id="clip3_3002">
			<rect id="logo-footer" width="228.000000" height="45.000000" fill="white" fill-opacity="0"/>
		</clipPath>
	</defs>
	<g clip-path="url(#clip3_3002)">
		<path id="Vector" d="M-0.13 39.55C-0.38 39.3 -0.46 39.05 -0.46 38.71L-0.46 8.71C-0.46 8.37 -0.38 8.12 -0.13 7.87C0.04 7.62 0.37 7.54 0.71 7.54L4.81 7.54C5.48 7.54 5.99 7.79 6.32 8.37L16.04 24.88L25.76 8.37C26.09 7.79 26.6 7.54 27.27 7.54L31.29 7.54C31.62 7.54 31.96 7.62 32.21 7.87C32.46 8.12 32.54 8.37 32.54 8.71L32.54 38.79C32.54 39.13 32.46 39.38 32.21 39.63C31.96 39.8 31.71 39.97 31.29 39.97L26.93 39.97C26.6 39.97 26.34 39.88 26.09 39.63C25.84 39.38 25.76 39.13 25.76 38.88L25.76 18.85L18.8 31.08C18.47 31.75 17.88 32.09 17.13 32.09L15.03 32.09C14.36 32.09 13.78 31.75 13.36 31.08L6.24 18.85L6.24 38.71C6.24 39.05 6.15 39.3 5.9 39.46C5.65 39.72 5.4 39.8 4.98 39.8L0.62 39.8C0.37 39.88 0.12 39.72 -0.13 39.55Z" fill="#C55046" fill-opacity="1.000000" fill-rule="nonzero"/>
		<path id="Vector" d="M39.41 39.55C39.16 39.3 39.08 39.05 39.08 38.79L39.08 8.71C39.08 8.37 39.16 8.12 39.41 7.87C39.58 7.62 39.83 7.54 40.25 7.54L54.83 7.54C58.77 7.54 61.7 8.29 63.62 9.88C65.55 11.48 66.56 13.65 66.56 16.34C66.56 17.93 66.14 19.27 65.3 20.44C64.46 21.53 63.46 22.37 62.28 22.87C63.71 23.46 64.88 24.38 65.89 25.72C66.89 27.06 67.31 28.57 67.31 30.25C67.31 33.1 66.22 35.44 64.13 37.2C62.03 38.96 59.02 39.8 55.25 39.8L40.17 39.8C39.92 39.88 39.58 39.72 39.41 39.55ZM53.99 20.78C55.67 20.78 57.01 20.36 57.93 19.6C58.85 18.85 59.35 17.84 59.35 16.5C59.35 15.25 58.93 14.24 58.01 13.49C57.09 12.82 55.75 12.4 53.99 12.4L46.2 12.4L46.2 20.69L53.99 20.69L53.99 20.78ZM54.49 34.94C56.25 34.94 57.59 34.52 58.6 33.6C59.6 32.76 60.02 31.59 60.02 30.25C60.02 28.91 59.52 27.82 58.51 26.89C57.51 26.06 56.17 25.55 54.49 25.55L46.2 25.55L46.2 34.86L54.49 34.86L54.49 34.94Z" fill="#C55046" fill-opacity="1.000000" fill-rule="nonzero"/>
		<path id="Vector" d="M72.92 39.55C72.76 39.38 72.59 39.13 72.59 38.79L72.59 8.63C72.59 8.29 72.67 8.04 72.92 7.87C73.09 7.7 73.43 7.54 73.76 7.54L74.68 7.54C75.02 7.54 75.35 7.62 75.52 7.79C75.69 7.96 75.86 8.21 75.86 8.54L75.86 22.03L95.29 22.03L95.29 8.63C95.29 8.29 95.38 8.04 95.63 7.87C95.8 7.7 96.13 7.54 96.47 7.54L97.39 7.54C97.72 7.54 98.06 7.62 98.22 7.79C98.39 7.96 98.56 8.21 98.56 8.54L98.56 38.79C98.56 39.13 98.48 39.38 98.22 39.55C97.97 39.72 97.72 39.8 97.39 39.8L96.47 39.8C96.13 39.8 95.88 39.72 95.63 39.55C95.46 39.38 95.29 39.13 95.29 38.79L95.29 24.8L75.86 24.8L75.86 38.79C75.86 39.13 75.77 39.38 75.52 39.55C75.27 39.72 75.02 39.8 74.68 39.8L73.76 39.8C73.43 39.88 73.18 39.72 72.92 39.55Z" fill="#000000" fill-opacity="1.000000" fill-rule="nonzero"/>
		<path id="Vector" d="M105.09 27.56C105.09 26.64 105.01 25.39 105.01 23.71C105.01 22.03 105.01 20.78 105.09 19.86C105.26 15.67 106.44 12.48 108.86 10.39C111.21 8.21 114.39 7.12 118.42 7.12C122.44 7.12 125.62 8.21 127.97 10.39C130.31 12.56 131.57 15.75 131.74 19.86C131.82 21.7 131.82 22.96 131.82 23.71C131.82 24.46 131.82 25.72 131.74 27.56C131.48 36.03 127.04 40.3 118.42 40.3C109.79 40.3 105.35 36.03 105.09 27.56ZM125.7 35.02C127.46 33.35 128.47 30.75 128.64 27.31C128.72 25.47 128.72 24.21 128.72 23.63C128.72 23.04 128.72 21.87 128.64 19.94C128.47 16.5 127.55 13.91 125.7 12.23C123.86 10.55 121.52 9.72 118.5 9.72C115.48 9.72 113.14 10.55 111.29 12.23C109.45 13.91 108.53 16.5 108.36 19.94C108.36 20.86 108.28 22.12 108.28 23.63C108.28 25.13 108.28 26.31 108.36 27.31C108.53 30.75 109.45 33.35 111.29 35.02C113.05 36.7 115.48 37.54 118.5 37.54C121.43 37.54 123.86 36.7 125.7 35.02Z" fill="#000000" fill-opacity="1.000000" fill-rule="nonzero"/>
		<path id="Vector" d="M141.45 37.12C139.19 34.94 138.1 31.75 138.1 27.4L138.1 8.63C138.1 8.29 138.19 8.04 138.44 7.87C138.61 7.7 138.94 7.54 139.28 7.54L140.2 7.54C140.53 7.54 140.87 7.62 141.03 7.79C141.2 7.96 141.37 8.21 141.37 8.54L141.37 27.4C141.37 30.75 142.21 33.35 143.97 34.94C145.64 36.62 148.07 37.45 151.25 37.45C154.36 37.45 156.78 36.62 158.46 34.94C160.14 33.26 161.06 30.75 161.06 27.4L161.06 8.63C161.06 8.29 161.14 8.04 161.39 7.87C161.64 7.7 161.89 7.62 162.23 7.62L163.15 7.62C163.49 7.62 163.74 7.7 163.99 7.96C164.16 8.12 164.33 8.37 164.33 8.71L164.33 27.48C164.33 31.92 163.24 35.11 160.97 37.29C158.8 39.38 155.53 40.47 151.34 40.47C146.9 40.3 143.63 39.21 141.45 37.12Z" fill="#000000" fill-opacity="1.000000" fill-rule="nonzero"/>
		<path id="Vector" d="M175.55 39.13C173.62 38.37 172.12 37.29 171.11 36.03C170.11 34.77 169.52 33.43 169.44 32.01C169.44 31.75 169.52 31.5 169.77 31.34C169.94 31.17 170.19 31.08 170.52 31.08L171.53 31.08C172.12 31.08 172.54 31.42 172.62 32.01C172.87 33.51 173.79 34.77 175.38 35.86C176.98 36.95 179.32 37.54 182.34 37.54C185.52 37.54 187.95 37.03 189.46 35.94C191.05 34.86 191.8 33.43 191.8 31.5C191.8 30.33 191.39 29.41 190.63 28.65C189.88 27.9 188.79 27.23 187.36 26.64C185.94 26.06 183.76 25.39 180.83 24.46C178.23 23.71 176.22 22.96 174.71 22.2C173.29 21.45 172.2 20.53 171.45 19.44C170.78 18.35 170.36 17.01 170.36 15.33C170.36 13.74 170.86 12.31 171.78 11.06C172.7 9.8 174.04 8.79 175.8 8.04C177.56 7.29 179.66 6.95 182.09 6.95C184.6 6.95 186.69 7.37 188.45 8.21C190.21 9.05 191.55 10.05 192.47 11.31C193.4 12.56 193.9 13.82 193.9 15.08C193.9 15.33 193.81 15.58 193.65 15.75C193.48 15.92 193.23 16 192.89 16L191.89 16C191.64 16 191.39 15.92 191.22 15.83C190.97 15.67 190.88 15.5 190.8 15.08C190.63 13.57 189.71 12.23 188.12 11.31C186.53 10.3 184.52 9.8 182.09 9.8C179.49 9.8 177.48 10.3 175.89 11.22C174.38 12.15 173.62 13.57 173.62 15.41C173.62 16.59 173.96 17.59 174.63 18.43C175.3 19.19 176.39 19.86 177.73 20.44C179.07 21.03 181.16 21.7 183.85 22.54C186.61 23.37 188.79 24.13 190.3 24.88C191.8 25.64 192.98 26.48 193.81 27.56C194.57 28.57 194.99 30 194.99 31.59C194.99 34.35 193.9 36.53 191.64 38.04C189.37 39.63 186.27 40.39 182.34 40.39C179.74 40.3 177.48 39.88 175.55 39.13Z" fill="#000000" fill-opacity="1.000000" fill-rule="nonzero"/>
		<path id="Vector" d="M201.1 39.55C200.94 39.38 200.77 39.13 200.77 38.79L200.77 8.63C200.77 8.29 200.85 8.04 201.1 7.87C201.27 7.7 201.61 7.54 201.94 7.54L221.54 7.54C221.88 7.54 222.21 7.62 222.38 7.79C222.55 7.96 222.72 8.21 222.72 8.54L222.72 9.21C222.72 9.55 222.63 9.8 222.38 9.97C222.13 10.13 221.88 10.22 221.54 10.22L203.95 10.22L203.95 21.95L220.46 21.95C220.79 21.95 221.13 22.03 221.29 22.2C221.46 22.37 221.63 22.62 221.63 22.96L221.63 23.63C221.63 23.96 221.54 24.21 221.29 24.38C221.04 24.55 220.79 24.63 220.46 24.63L203.95 24.63L203.95 36.87L221.96 36.87C222.3 36.87 222.63 36.95 222.8 37.12C222.97 37.29 223.14 37.54 223.14 37.87L223.14 38.54C223.14 38.88 223.05 39.13 222.8 39.3C222.55 39.46 222.3 39.55 221.96 39.55L201.86 39.55C201.52 39.88 201.27 39.72 201.1 39.55Z" fill="#000000" fill-opacity="1.000000" fill-rule="nonzero"/>
	</g>
</svg>
