<svg width="24.000000" height="24.000000" viewBox="0 0 24 24" fill="none" xmlns="http://www.w3.org/2000/svg" xmlns:xlink="http://www.w3.org/1999/xlink">
	<desc>
			Created with Pixso.
	</desc>
	<defs>
		<clipPath id="clip3_3027">
			<rect id="phone-solid (1) 1" width="24.000000" height="24.000000" fill="white" fill-opacity="0"/>
		</clipPath>
	</defs>
	<g clip-path="url(#clip3_3027)">
		<path id="Vector" d="M23.12 1.15L18.25 0.02C17.72 -0.1 17.18 0.18 16.96 0.68L14.71 5.93C14.51 6.38 14.64 6.92 15.03 7.24L17.87 9.56C16.19 13.16 13.24 16.15 9.57 17.87L7.24 15.03C6.92 14.64 6.39 14.51 5.93 14.7L0.68 16.95C0.18 17.18 -0.1 17.72 0.02 18.25L1.15 23.12C1.27 23.63 1.72 24 2.25 24C14.25 24 24 14.27 24 2.25C24 1.72 23.63 1.27 23.12 1.15Z" fill="#E24648" fill-opacity="1.000000" fill-rule="nonzero"/>
	</g>
</svg>
