<svg width="36.000000" height="38.000000" viewBox="0 0 36 38" fill="none" xmlns="http://www.w3.org/2000/svg" xmlns:xlink="http://www.w3.org/1999/xlink">
	<desc>
			Created with Pixso.
	</desc>
	<defs/>
	<rect id="Rectangle 151" rx="10.133333" width="35.888889" height="38.000000" fill="#BDBDBD" fill-opacity="1.000000"/>
	<path id="Shape" d="M4.37 18.56C6.93 17.01 9.79 15.72 12.45 14.43C17.04 12.31 21.65 10.22 26.3 8.28C27.21 7.94 28.84 7.62 29 9.09C28.91 11.18 28.55 13.25 28.3 15.32C27.68 19.87 26.95 24.41 26.25 28.95C26.01 30.47 24.28 31.25 23.17 30.28C20.52 28.31 17.84 26.37 15.22 24.35C14.36 23.39 15.16 22.02 15.92 21.34C18.11 18.97 20.43 16.96 22.5 14.48C23.06 12.99 21.41 14.24 20.87 14.63C17.87 16.89 14.95 19.29 11.79 21.28C10.18 22.25 8.3 21.42 6.69 20.88C5.24 20.22 3.13 19.56 4.37 18.56L4.37 18.56Z" fill="#FFFFFF" fill-opacity="1.000000" fill-rule="nonzero"/>
</svg>
